<mxfile host="65bd71144e">
    <diagram id="7gpT3IH07fdOj7RS0yBA" name="Page-1">
        <mxGraphModel dx="926" dy="361" grid="0" gridSize="10" guides="1" tooltips="1" connect="1" arrows="1" fold="1" page="1" pageScale="1" pageWidth="850" pageHeight="1100" background="none" math="0" shadow="0">
            <root>
                <mxCell id="0"/>
                <mxCell id="1" parent="0"/>
                <mxCell id="4" value="&lt;div style=&quot;color: rgb(212, 212, 212); background-color: rgb(30, 30, 30); font-family: &amp;quot;Droid Sans Mono&amp;quot;, &amp;quot;monospace&amp;quot;, monospace; font-weight: normal; font-size: 15.4px; line-height: 20px;&quot;&gt;&lt;div&gt;&lt;span style=&quot;color: #569cd6;&quot;&gt;class Marks{&lt;/span&gt;&lt;/div&gt;&lt;div&gt;&lt;span style=&quot;color: #569cd6;&quot;&gt;void&lt;/span&gt;&lt;span style=&quot;color: #d4d4d4;&quot;&gt; &lt;/span&gt;&lt;span style=&quot;color: #b4b4b4;&quot;&gt;operator&lt;/span&gt;&lt;span style=&quot;color: #b4b4b4;&quot;&gt; &lt;/span&gt;&lt;span style=&quot;color: #b4b4b4;&quot;&gt;+=&lt;/span&gt;&lt;span style=&quot;color: #d4d4d4;&quot;&gt;(&lt;/span&gt;&lt;span style=&quot;color: #569cd6;&quot;&gt;int&lt;/span&gt;&lt;span style=&quot;color: #d4d4d4;&quot;&gt; &lt;/span&gt;&lt;span style=&quot;color: #7f7f7f;&quot;&gt;bonous_marks&lt;/span&gt;&lt;span style=&quot;color: #d4d4d4;&quot;&gt;){&lt;/span&gt;&lt;/div&gt;&lt;div&gt;&lt;span style=&quot;color: #d4d4d4;&quot;&gt;            &lt;/span&gt;&lt;span style=&quot;color: #dadada;&quot;&gt;mark&lt;/span&gt;&lt;span style=&quot;color: #d4d4d4;&quot;&gt;+=&lt;/span&gt;&lt;span style=&quot;color: #7f7f7f;&quot;&gt;bonous_marks&lt;/span&gt;&lt;span style=&quot;color: #d4d4d4;&quot;&gt;;&lt;/span&gt;&lt;/div&gt;&lt;div&gt;&lt;span style=&quot;color: #d4d4d4;&quot;&gt; &lt;/span&gt;&lt;/div&gt;&lt;div&gt;&lt;span style=&quot;color: #d4d4d4;&quot;&gt;        }&lt;/span&gt;&lt;/div&gt;&lt;br&gt;&lt;div&gt;&lt;span style=&quot;color: #d4d4d4;&quot;&gt;        &lt;/span&gt;&lt;span style=&quot;color: #569cd6;&quot;&gt;friend&lt;/span&gt;&lt;span style=&quot;color: #d4d4d4;&quot;&gt; &lt;/span&gt;&lt;span style=&quot;color: #569cd6;&quot;&gt;void&lt;/span&gt;&lt;span style=&quot;color: #d4d4d4;&quot;&gt; &lt;/span&gt;&lt;span style=&quot;color: #b4b4b4;&quot;&gt;operator&lt;/span&gt;&lt;span style=&quot;color: #b4b4b4;&quot;&gt; &lt;/span&gt;&lt;span style=&quot;color: #b4b4b4;&quot;&gt;-=&lt;/span&gt;&lt;span style=&quot;color: #d4d4d4;&quot;&gt;(&lt;/span&gt;&lt;span style=&quot;color: #4ec9b0;&quot;&gt;Marks&lt;/span&gt;&lt;span style=&quot;color: #d4d4d4;&quot;&gt; &lt;/span&gt;&lt;span style=&quot;color: #7f7f7f;&quot;&gt;cur_obj&lt;/span&gt;&lt;span style=&quot;color: #d4d4d4;&quot;&gt;,&lt;/span&gt;&lt;span style=&quot;color: #569cd6;&quot;&gt;int&lt;/span&gt;&lt;span style=&quot;color: #d4d4d4;&quot;&gt; &lt;/span&gt;&lt;span style=&quot;color: #7f7f7f;&quot;&gt;readmark&lt;/span&gt;&lt;span style=&quot;color: #d4d4d4;&quot;&gt;);&lt;/span&gt;&lt;/div&gt;&lt;div&gt;};&lt;/div&gt;&lt;div&gt;&lt;br&gt;&lt;/div&gt;&lt;div&gt;&lt;span style=&quot;color: #d4d4d4;&quot;&gt; &lt;/span&gt;&lt;span style=&quot;color: #569cd6;&quot;&gt;void&lt;/span&gt;&lt;span style=&quot;color: #d4d4d4;&quot;&gt; &lt;/span&gt;&lt;span style=&quot;color: #b4b4b4;&quot;&gt;operator&lt;/span&gt;&lt;span style=&quot;color: #b4b4b4;&quot;&gt; &lt;/span&gt;&lt;span style=&quot;color: #b4b4b4;&quot;&gt;-=&lt;/span&gt;&lt;span style=&quot;color: #d4d4d4;&quot;&gt;(&lt;/span&gt;&lt;span style=&quot;color: #4ec9b0;&quot;&gt;Marks&lt;/span&gt;&lt;span style=&quot;color: #d4d4d4;&quot;&gt; &lt;/span&gt;&lt;span style=&quot;color: #7f7f7f;&quot;&gt;cur_obj&lt;/span&gt;&lt;span style=&quot;color: #d4d4d4;&quot;&gt;,&lt;/span&gt;&lt;span style=&quot;color: #569cd6;&quot;&gt;int&lt;/span&gt;&lt;span style=&quot;color: #d4d4d4;&quot;&gt; &lt;/span&gt;&lt;span style=&quot;color: #7f7f7f;&quot;&gt;readmark&lt;/span&gt;&lt;span style=&quot;color: #d4d4d4;&quot;&gt;){&lt;/span&gt;&lt;/div&gt;&lt;div&gt;&lt;span style=&quot;color: #d4d4d4;&quot;&gt;    &lt;/span&gt;&lt;span style=&quot;color: #7f7f7f;&quot;&gt;cur_obj&lt;/span&gt;&lt;span style=&quot;color: #d4d4d4;&quot;&gt;.&lt;/span&gt;&lt;span style=&quot;color: #dadada;&quot;&gt;mark&lt;/span&gt;&lt;span style=&quot;color: #d4d4d4;&quot;&gt; -= &lt;/span&gt;&lt;span style=&quot;color: #7f7f7f;&quot;&gt;readmark&lt;/span&gt;&lt;span style=&quot;color: #d4d4d4;&quot;&gt;;&lt;/span&gt;&lt;/div&gt;&lt;div&gt;&lt;span style=&quot;color: #d4d4d4;&quot;&gt;}&lt;/span&gt;&lt;/div&gt;&lt;br&gt;&lt;br&gt;&lt;br&gt;&lt;div&gt;&lt;span style=&quot;color: #569cd6;&quot;&gt;int&lt;/span&gt;&lt;span style=&quot;color: #d4d4d4;&quot;&gt; &lt;/span&gt;&lt;span style=&quot;color: #c8c8c8;&quot;&gt;main&lt;/span&gt;&lt;span style=&quot;color: #d4d4d4;&quot;&gt;(){&lt;/span&gt;&lt;/div&gt;&lt;div&gt;&lt;span style=&quot;color: #d4d4d4;&quot;&gt;    &lt;/span&gt;&lt;/div&gt;&lt;div&gt;&lt;span style=&quot;color: #d4d4d4;&quot;&gt;    &lt;/span&gt;&lt;span style=&quot;color: #4ec9b0;&quot;&gt;Marks&lt;/span&gt;&lt;span style=&quot;color: #d4d4d4;&quot;&gt; &lt;/span&gt;&lt;span style=&quot;color: #c8c8c8;&quot;&gt;pervez_mark&lt;/span&gt;&lt;span style=&quot;color: #d4d4d4;&quot;&gt;(&lt;/span&gt;&lt;span style=&quot;color: #b5cea8;&quot;&gt;50&lt;/span&gt;&lt;span style=&quot;color: #d4d4d4;&quot;&gt;);&lt;/span&gt;&lt;/div&gt;&lt;div&gt;&lt;span style=&quot;color: #d4d4d4;&quot;&gt;    &lt;/span&gt;&lt;span style=&quot;color: #c8c8c8;&quot;&gt;pervez_mark&lt;/span&gt;&lt;span style=&quot;color: #d4d4d4;&quot;&gt;.&lt;/span&gt;&lt;span style=&quot;color: #c8c8c8;&quot;&gt;dis&lt;/span&gt;&lt;span style=&quot;color: #d4d4d4;&quot;&gt;();&lt;/span&gt;&lt;/div&gt;&lt;div&gt;&lt;span style=&quot;color: #d4d4d4;&quot;&gt;    &lt;/span&gt;&lt;span style=&quot;color: #c8c8c8;&quot;&gt;pervez_mark&lt;/span&gt;&lt;span style=&quot;color: #d4d4d4;&quot;&gt; &lt;/span&gt;&lt;span style=&quot;color: #b4b4b4;&quot;&gt;+=&lt;/span&gt;&lt;span style=&quot;color: #d4d4d4;&quot;&gt; &lt;/span&gt;&lt;span style=&quot;color: #b5cea8;&quot;&gt;20&lt;/span&gt;&lt;span style=&quot;color: #d4d4d4;&quot;&gt;;&lt;/span&gt;&lt;/div&gt;&lt;div&gt;&lt;span style=&quot;color: #d4d4d4;&quot;&gt;    &lt;/span&gt;&lt;span style=&quot;color: #c8c8c8;&quot;&gt;pervez_mark&lt;/span&gt;&lt;span style=&quot;color: #d4d4d4;&quot;&gt;.&lt;/span&gt;&lt;span style=&quot;color: #c8c8c8;&quot;&gt;dis&lt;/span&gt;&lt;span style=&quot;color: #d4d4d4;&quot;&gt;();&lt;/span&gt;&lt;/div&gt;&lt;div&gt;&lt;span style=&quot;color: #d4d4d4;&quot;&gt;    &lt;/span&gt;&lt;span style=&quot;color: #c8c8c8;&quot;&gt;pervez_mark&lt;/span&gt;&lt;span style=&quot;color: #b4b4b4;&quot;&gt;-=&lt;/span&gt;&lt;span style=&quot;color: #d4d4d4;&quot;&gt; &lt;/span&gt;&lt;span style=&quot;color: #b5cea8;&quot;&gt;20&lt;/span&gt;&lt;span style=&quot;color: #d4d4d4;&quot;&gt;;&lt;/span&gt;&lt;/div&gt;&lt;div&gt;&lt;span style=&quot;color: #d4d4d4;&quot;&gt;    &lt;/span&gt;&lt;span style=&quot;color: #c8c8c8;&quot;&gt;pervez_mark&lt;/span&gt;&lt;span style=&quot;color: #d4d4d4;&quot;&gt;.&lt;/span&gt;&lt;span style=&quot;color: #c8c8c8;&quot;&gt;dis&lt;/span&gt;&lt;span style=&quot;color: #d4d4d4;&quot;&gt;();&lt;/span&gt;&lt;/div&gt;&lt;div&gt;&lt;span style=&quot;color: #d4d4d4;&quot;&gt;    &lt;/span&gt;&lt;/div&gt;&lt;div&gt;&lt;span style=&quot;color: #d4d4d4;&quot;&gt;    }&lt;/span&gt;&lt;/div&gt;&lt;/div&gt;" style="text;whiteSpace=wrap;html=1;movable=0;resizable=0;rotatable=0;deletable=0;editable=0;connectable=0;" vertex="1" parent="1">
                    <mxGeometry x="194.99886093139648" y="313.99928985595704" width="510" height="442" as="geometry"/>
                </mxCell>
                <mxCell id="5" value="mark=50&amp;nbsp;&lt;br&gt;pervez_mark is object,so this is continer inside mark = 50&amp;nbsp;&lt;br&gt;so i talk pervez_mark object&lt;br&gt;&amp;nbsp;value is 50" style="whiteSpace=wrap;html=1;" vertex="1" parent="1">
                    <mxGeometry x="661" y="536" width="178" height="79" as="geometry"/>
                </mxCell>
                <mxCell id="6" value="" style="endArrow=classic;html=1;" edge="1" parent="1">
                    <mxGeometry width="50" height="50" relative="1" as="geometry">
                        <mxPoint x="339" y="623" as="sourcePoint"/>
                        <mxPoint x="661" y="561" as="targetPoint"/>
                        <Array as="points">
                            <mxPoint x="365" y="611"/>
                        </Array>
                    </mxGeometry>
                </mxCell>
                <mxCell id="8" style="edgeStyle=none;html=1;" edge="1" parent="1" source="7">
                    <mxGeometry relative="1" as="geometry">
                        <mxPoint x="270" y="670" as="targetPoint"/>
                        <Array as="points">
                            <mxPoint x="295" y="662"/>
                        </Array>
                    </mxGeometry>
                </mxCell>
                <mxCell id="7" value="mark=20;&lt;br&gt;mark +=20;&lt;br&gt;mark=70;" style="whiteSpace=wrap;html=1;" vertex="1" parent="1">
                    <mxGeometry x="579" y="625" width="152" height="52" as="geometry"/>
                </mxCell>
                <mxCell id="9" value="pervez_mark continetr" style="text;strokeColor=none;align=center;fillColor=none;html=1;verticalAlign=middle;whiteSpace=wrap;rounded=0;" vertex="1" parent="1">
                    <mxGeometry x="607" y="677" width="106.5" height="27.43" as="geometry"/>
                </mxCell>
                <mxCell id="10" value="" style="endArrow=classic;html=1;" edge="1" parent="1">
                    <mxGeometry width="50" height="50" relative="1" as="geometry">
                        <mxPoint x="316" y="674" as="sourcePoint"/>
                        <mxPoint x="338" y="350" as="targetPoint"/>
                        <Array as="points">
                            <mxPoint x="302" y="682"/>
                            <mxPoint x="185" y="682"/>
                            <mxPoint x="181" y="310"/>
                            <mxPoint x="345" y="320"/>
                        </Array>
                    </mxGeometry>
                </mxCell>
                <mxCell id="11" value="" style="endArrow=none;html=1;" edge="1" parent="1">
                    <mxGeometry width="50" height="50" relative="1" as="geometry">
                        <mxPoint x="276" y="683" as="sourcePoint"/>
                        <mxPoint x="349" y="671" as="targetPoint"/>
                        <Array as="points">
                            <mxPoint x="339" y="681"/>
                        </Array>
                    </mxGeometry>
                </mxCell>
                <mxCell id="12" value="" style="endArrow=classic;html=1;" edge="1" parent="1">
                    <mxGeometry width="50" height="50" relative="1" as="geometry">
                        <mxPoint x="327" y="319" as="sourcePoint"/>
                        <mxPoint x="437" y="340" as="targetPoint"/>
                    </mxGeometry>
                </mxCell>
                <mxCell id="14" style="edgeStyle=none;html=1;" edge="1" parent="1" source="13">
                    <mxGeometry relative="1" as="geometry">
                        <mxPoint x="351.0507469177246" y="711.6236343383789" as="targetPoint"/>
                    </mxGeometry>
                </mxCell>
                <mxCell id="13" value="agin process -= overload function" style="whiteSpace=wrap;html=1;" vertex="1" parent="1">
                    <mxGeometry x="450.9966319274902" y="699.9959768676758" width="120" height="60" as="geometry"/>
                </mxCell>
            </root>
        </mxGraphModel>
    </diagram>
</mxfile>